<?xml version="1.0" standalone="no"?>
<!DOCTYPE svg PUBLIC "-//W3C//DTD SVG 20010904//EN"
 "http://www.w3.org/TR/2001/REC-SVG-20010904/DTD/svg10.dtd">
<svg version="1.0" xmlns="http://www.w3.org/2000/svg"
 width="2138.000000pt" height="2138.000000pt" viewBox="0 0 2138.000000 2138.000000"
 preserveAspectRatio="xMidYMid meet">
<metadata>
Created by potrace 1.14, written by Peter Selinger 2001-2017
</metadata>
<g transform="translate(0.000000,2138.000000) scale(0.100000,-0.100000)"
fill="#000000" stroke="none">
<path d="M10257 20913 c-182 -450 -274 -679 -386 -958 -62 -154 -119 -293
-126 -310 -7 -16 -37 -88 -65 -160 -28 -71 -58 -143 -65 -160 -15 -34 -27 -65
-31 -80 -1 -5 -30 -77 -64 -160 -34 -82 -88 -217 -121 -300 -34 -82 -65 -159
-69 -170 -14 -30 -129 -315 -142 -350 -6 -16 -17 -43 -24 -60 -7 -16 -38 -93
-69 -170 -31 -77 -60 -149 -65 -160 -5 -11 -32 -78 -60 -150 -29 -71 -58 -143
-65 -160 -34 -78 -151 -374 -155 -390 -1 -5 -7 -19 -13 -30 -6 -11 -12 -24
-13 -30 -2 -5 -78 -194 -169 -420 -92 -225 -194 -477 -227 -560 -33 -82 -66
-163 -73 -180 -7 -16 -88 -217 -180 -445 -194 -483 -203 -505 -220 -545 -7
-16 -63 -156 -125 -310 -129 -324 -122 -306 -149 -367 -12 -26 -21 -50 -21
-52 0 -4 -211 -527 -230 -571 -5 -11 -32 -78 -60 -150 -29 -71 -73 -179 -97
-240 -64 -157 -322 -796 -383 -950 -29 -71 -58 -143 -65 -160 -7 -16 -27 -66
-44 -110 -18 -44 -36 -89 -41 -100 -5 -11 -62 -150 -125 -310 -64 -159 -120
-299 -125 -310 -13 -27 -135 -331 -172 -425 -15 -41 -33 -84 -38 -95 -5 -11
-44 -105 -86 -210 -124 -310 -155 -388 -169 -420 -7 -16 -63 -156 -125 -310
-61 -154 -118 -293 -125 -310 -15 -35 -319 -787 -347 -860 -11 -27 -26 -63
-33 -80 -8 -16 -50 -120 -93 -230 -147 -368 -253 -630 -262 -650 -5 -11 -32
-78 -60 -150 -29 -71 -58 -143 -65 -160 -7 -16 -93 -228 -190 -470 -185 -459
-220 -547 -235 -580 -5 -11 -22 -54 -38 -95 -23 -60 -241 -598 -293 -726 -7
-16 -13 -33 -15 -39 -1 -5 -19 -50 -40 -100 -65 -157 -285 -700 -288 -710 -1
-5 -10 -27 -19 -49 -9 -21 -17 -41 -17 -43 0 -3 -7 -19 -15 -36 -8 -18 -52
-126 -98 -242 -47 -115 -147 -363 -222 -550 -75 -187 -150 -374 -167 -415 -17
-41 -36 -88 -43 -105 -7 -16 -78 -192 -158 -390 -179 -445 -442 -1096 -496
-1230 -23 -54 -41 -104 -41 -110 0 -8 566 -207 600 -211 5 0 279 -88 390 -124
74 -24 232 -73 245 -76 6 -1 62 -18 125 -37 124 -39 346 -106 370 -112 8 -3
31 -9 50 -14 19 -5 107 -30 195 -55 88 -26 183 -53 210 -60 28 -8 93 -26 145
-41 52 -16 111 -32 130 -36 19 -4 103 -26 185 -48 158 -44 802 -204 965 -241
52 -12 122 -28 155 -36 33 -7 83 -18 110 -23 28 -6 61 -13 75 -16 14 -3 40 -8
59 -11 19 -3 44 -9 55 -14 12 -4 24 -8 29 -8 20 -1 103 -16 167 -31 25 -5 61
-13 80 -16 19 -3 80 -15 135 -25 98 -19 413 -71 508 -85 27 -3 56 -8 65 -9 10
-2 44 -7 77 -11 32 -4 66 -8 75 -10 8 -1 46 -6 85 -10 38 -4 72 -8 75 -10 3
-1 50 -6 105 -10 55 -4 102 -8 105 -10 30 -17 767 -27 885 -12 33 4 82 10 109
13 27 3 58 8 70 10 12 2 37 7 56 10 19 3 78 17 130 31 52 14 102 27 110 28 8
2 65 15 125 29 105 25 295 60 380 71 54 6 125 16 153 20 13 2 53 7 90 10 37 3
78 8 92 10 14 3 57 7 95 10 39 3 90 8 115 10 86 9 298 22 480 30 58 3 159 7
225 10 185 8 462 14 900 20 1079 14 1367 20 1580 30 55 3 156 7 225 10 240 11
471 27 690 50 49 5 262 32 315 39 11 2 45 6 75 10 30 4 62 9 70 11 8 2 31 7
50 10 19 3 55 10 80 15 25 5 56 12 70 14 14 2 48 10 75 16 28 6 57 13 65 15
110 24 324 91 475 150 61 24 577 215 715 265 41 15 118 43 170 63 52 20 176
66 275 102 99 36 189 70 200 75 11 4 85 31 165 60 80 29 161 58 180 66 68 27
555 205 570 209 8 2 29 9 45 16 17 6 35 13 40 15 9 2 179 65 320 118 33 13 59
27 58 32 -1 6 -83 203 -183 439 -100 237 -225 531 -277 655 -53 124 -152 358
-220 520 -69 162 -157 369 -195 460 -39 91 -82 192 -95 225 -14 33 -31 74 -38
90 -8 17 -46 107 -85 200 -217 515 -513 1214 -525 1240 -14 32 -80 188 -207
490 -44 105 -86 204 -93 220 -8 17 -46 107 -85 200 -40 94 -78 184 -85 200 -8
17 -57 134 -110 260 -92 218 -106 250 -139 328 -8 17 -44 104 -81 192 -37 88
-76 179 -86 202 -10 24 -19 45 -19 48 0 2 -11 28 -24 57 -13 29 -67 157 -120
283 -54 127 -103 244 -111 260 -7 17 -50 118 -95 225 -45 107 -89 211 -97 230
-9 19 -21 49 -28 65 -7 17 -25 59 -40 95 -15 36 -33 79 -40 95 -7 17 -38 89
-68 160 -80 187 -524 1237 -599 1415 -49 118 -95 225 -113 265 -7 17 -23 53
-34 81 -19 49 -47 115 -76 179 -8 17 -107 251 -220 520 -114 270 -213 504
-220 520 -8 17 -26 59 -40 95 -30 73 -44 105 -73 170 -11 25 -36 86 -57 135
-20 50 -43 104 -50 120 -7 17 -57 134 -110 260 -54 127 -115 273 -137 325 -22
52 -49 114 -59 137 -11 23 -19 44 -19 47 0 3 -11 29 -24 58 -14 29 -43 96 -64
148 -22 52 -97 230 -167 395 -70 165 -170 401 -222 525 -52 124 -100 239 -107
255 -41 91 -371 872 -387 912 -12 32 -27 66 -63 146 -14 32 -26 59 -26 61 0 4
-132 318 -164 391 -8 17 -44 102 -81 190 -37 88 -93 221 -125 295 -65 153
-166 393 -330 780 -61 146 -117 279 -125 295 -7 17 -37 86 -65 155 -29 69 -60
143 -70 165 -10 22 -61 144 -114 270 -53 127 -103 244 -110 260 -8 17 -57 134
-111 260 -53 127 -102 244 -110 260 -7 17 -50 118 -95 225 -45 107 -88 209
-95 225 -8 17 -39 91 -70 165 -58 140 -68 163 -104 242 -11 26 -21 50 -21 53
0 3 -9 25 -20 50 -35 79 -54 124 -201 472 -79 189 -147 343 -150 343 -3 0 -49
-107 -102 -237z"/>
</g>
</svg>
