<svg id="Слой_12" data-name="Слой 12" xmlns="http://www.w3.org/2000/svg" xmlns:xlink="http://www.w3.org/1999/xlink" viewBox="0 0 397.33 550.22"><defs><style>.cls-1{fill:none;}.cls-1,.cls-22,.cls-3,.cls-9{stroke:#000;stroke-miterlimit:10;}.cls-1,.cls-3{stroke-width:5px;}.cls-2{clip-path:url(#clip-path);}.cls-3,.cls-5{fill:#d68a2a;}.cls-4{fill:#f8be45;}.cls-6{fill:#fab94a;}.cls-7{fill:#fcdc6c;}.cls-8{fill:#ffed9f;}.cls-9{fill:#8e2e23;stroke-width:5.09px;}.cls-10{fill:#bd3d2f;}.cls-11{fill:#dd7655;}.cls-12{fill:#291e21;}.cls-13{fill:#3e2c32;}.cls-14{fill:#584047;}.cls-15{fill:#b62b0f;}.cls-16{fill:#e10001;}.cls-17{fill:#fe9c47;}.cls-18{fill:#f44e3f;}.cls-19{fill:#ffb464;}.cls-20{fill:#f9bc3f;}.cls-21{fill:#835b40;}.cls-22{fill:#fee4b1;stroke-width:4.73px;}.cls-23{fill:#fff4e0;}.cls-24{fill:#edce33;}.cls-25{fill:#f7f5d8;}.cls-26{fill:#95b907;}.cls-27{fill:#bfd56a;}</style><clipPath id="clip-path"><path class="cls-1" d="M12.11,8.56V540.11L390.78,160.56S288.56,68.11,245,62.78,128.56,13.89,87.67,12.11,12.11,8.56,12.11,8.56Z"/></clipPath></defs><g class="cls-2"><path class="cls-3" d="M12.11,8.56V540.11L390.78,160.56S288.56,68.11,245,62.78,128.56,13.89,87.67,12.11,12.11,8.56,12.11,8.56Z"/><path class="cls-4" d="M19.22,111.67c23.11-7.11,63.11,72,128,61.33,43.89-7.21,45.2,61.89,85.34,40,8.47-4.62-8.1,19.13-1.78,27.56,8.27,11,51.55,0,39.11,25.77C260,286.79,67.22,477.89,17.44,521.44,13.38,525,6,115.73,19.22,111.67Z"/><path class="cls-5" d="M149,303.67c5.33-34.67,56.89-35.56,61.33-8.89s-28.44,21.33-25.77,35.55S134.78,372.11,131.22,381,52.11,479.67,45,478.78,36.11,333,59.22,326.78s32.89-47.11,29.34-62.22S43.35,293,38.78,266.33s23.11-17.77,9.78-52.44,112-76.45,119.11-52.45,10.66,68.45.89,78.23S149,303.67,149,303.67Z"/><path d="M261.09,220.91a9.63,9.63,0,0,1,1.85-.43,13.46,13.46,0,0,0,3.1-.71,15.16,15.16,0,0,1,2.78-.64c.73-.08,1.45-.17,2.15-.23a5.86,5.86,0,0,0,2.21-.75,1.8,1.8,0,0,0,.66-1,1.42,1.42,0,0,0,0-.73,2.16,2.16,0,0,0-2.08-1c-.69.06-1.38.08-2.09.11a4.1,4.1,0,0,0-1,.11c-1.67.42-3.33.58-5.11,1.2a3,3,0,0,1-.79.2,20.44,20.44,0,0,0-4.2.81,14.61,14.61,0,0,1-3.21.52,8.32,8.32,0,0,0-1.63.28c-2.87.66-5.69,1.13-8.61,1.65-.65.11-1.32.31-2,.48a13,13,0,0,1-1.43.36,50.43,50.43,0,0,0-6.62,1.8,6,6,0,0,0-2.91,1.69c-.51.52-.74.75-1,1a3,3,0,0,0-.76,2.24.89.89,0,0,0,1.16.79l.29-.08a16.84,16.84,0,0,0,3.2-1.16,30.62,30.62,0,0,1,9.42-2.79,40.21,40.21,0,0,0,4.23-.79c1-.23,2.08-.64,3.08-.77s2-.31,3-.53C256.94,222,259,221.48,261.09,220.91Z"/><path d="M36.78,111.65a17.2,17.2,0,0,1,4.08-4.74c1-.79,2-1.65,2.9-2.55A6,6,0,0,1,46,103l3.36-1.14a.35.35,0,0,0,.22-.47.74.74,0,0,0-.12-.27,3.46,3.46,0,0,0-3.65-1.17,7.37,7.37,0,0,0-4,1.77,4,4,0,0,1-.91.55A6.49,6.49,0,0,0,39,103.83,15.52,15.52,0,0,1,36.83,106a8.84,8.84,0,0,0-2.17,2.68,9.07,9.07,0,0,1-1,1.46,21.42,21.42,0,0,0-3.18,5.41c-.61,1.42-1.19,2.84-1.92,4.16a15.39,15.39,0,0,0-1.15,2.86c-.23.7-.49,1.36-.75,2a35.49,35.49,0,0,0-1.31,4.17c-.45,1.84-.64,3.79-1,5.66-.08.41-.07.86-.17,2a13.68,13.68,0,0,0,.52,3.41c.18.85,1.07,1.31,1.62.82a1,1,0,0,0,.26-.5,9,9,0,0,0,.14-1.28A25.26,25.26,0,0,1,26.9,136a57.41,57.41,0,0,1,1.29-6.26c.56-1.79,1.16-3.57,1.78-5.34A32.84,32.84,0,0,1,32,119.56a42.12,42.12,0,0,1,4.26-7.17A6.78,6.78,0,0,0,36.78,111.65Z"/><path d="M232.81,187.59a16.33,16.33,0,0,1,3.95.35,5.58,5.58,0,0,1,2.65,1.09,3.59,3.59,0,0,0,1.75.71,3.72,3.72,0,0,0,.72-2.1.7.7,0,0,0-.09-.46,5.26,5.26,0,0,0-3.56-3,12.35,12.35,0,0,0-4.14-.44c-.85.08-1.68.08-2.53.14a11.14,11.14,0,0,0-2.28.22c-1.49.41-2.85.25-4.34.59s-2.93.46-4.4.67c-.49.08-1,.16-1.47.27-2.1.48-4.16,1-6.18,1.64a18.42,18.42,0,0,0-7.43,4.79,2.84,2.84,0,0,0-.93,1.91c0,.38.51.61,1,.46a6.88,6.88,0,0,0,2-.87,16.84,16.84,0,0,1,3.1-1.7c1.08-.41,2.18-.73,3.28-1a28.24,28.24,0,0,0,3-.75c2-.78,3.94-.85,5.9-1.36a25,25,0,0,0,4.63-.62A49,49,0,0,1,232.81,187.59Z"/><path d="M134.35,123.84a9.62,9.62,0,0,0,2.76-2,4,4,0,0,0,.46-.86,2.16,2.16,0,0,0-.29-.78,1.65,1.65,0,0,0-1.63-.4,9.31,9.31,0,0,0-3,1.06,21.73,21.73,0,0,0-4.88,3.18,12.68,12.68,0,0,0-3.7,3.14c-1.78,1.42-3.4,3.17-5.06,4.79a11.78,11.78,0,0,0-1.24,1.21,21.39,21.39,0,0,1-2.21,2.33c-.27.27-.51.61-.77.9a38.05,38.05,0,0,0-3.35,4.72,24.61,24.61,0,0,0-1.62,3.05,4.93,4.93,0,0,0-.13,3.94.81.81,0,0,0,1.4.2,6.69,6.69,0,0,0,.86-1.24,24.74,24.74,0,0,1,2.56-4.24,25.62,25.62,0,0,1,4.12-5.09,33.74,33.74,0,0,1,3-3.15c.48-.47.87-1.12,1.39-1.54a14.3,14.3,0,0,0,2.7-2.64,3.5,3.5,0,0,1,.64-.58c2-1.62,4-3.24,6-4.84A8.24,8.24,0,0,1,134.35,123.84Z"/><path d="M176.67,140.44c.15,0,.32-.22.46-.37a1.07,1.07,0,0,0,0-.86L177,139a3.3,3.3,0,0,0-1.7-1.51,10.14,10.14,0,0,0-4.41-.63c-1.64.2-3.28,1-4.9,1.3-1.39.84-2.86,1.24-4.22,2.1a41,41,0,0,0-7.25,5.15,3.78,3.78,0,0,1-.69.52,9.34,9.34,0,0,0-2.34,2.24c-.77,1-1.58,1.89-2.29,2.9a4.49,4.49,0,0,0-.81,3.85,9.84,9.84,0,0,0,.37,1,.59.59,0,0,0,.82.2,5.49,5.49,0,0,0,1.7-1.58,41.37,41.37,0,0,1,4.91-5.37,17.26,17.26,0,0,1,2.26-1.83l6.21-3.95a13.11,13.11,0,0,1,3.76-1.66,14.6,14.6,0,0,1,4.6-.86A12.94,12.94,0,0,0,176.67,140.44Z"/><path d="M160.83,132.53a4.66,4.66,0,0,0,1-.63,1.12,1.12,0,0,0,.38-.84c0-.55-.3-1-.71-1l-2.3.17a15.75,15.75,0,0,0-8.26,2.87,5.45,5.45,0,0,1-1.21.68,8.47,8.47,0,0,0-2.16,1.22c-1.55,1.08-3.08,2.24-4.62,3.33a38.9,38.9,0,0,0-5.06,4.28,24.13,24.13,0,0,0-4.61,6c-.15.28-.27.58-.38.81a4.5,4.5,0,0,0-.11.7c0,.51,0,1,.07,1.53a1.2,1.2,0,0,0,2.22.56c.56-.72,1.1-1.47,1.65-2.21,1.41-1.9,2.94-3.62,4.48-5.34a14.75,14.75,0,0,1,2.16-2l7.15-5.12a28.42,28.42,0,0,1,5.58-3Z"/><path d="M107.11,121a10.91,10.91,0,0,1,2.26-1.59c1.42-.75,2.74-1.81,4.16-2.59a.94.94,0,0,0,.29-.84c-.13-.93-.43-1.38-1.09-1.32a8.14,8.14,0,0,0-3.67,1c-.85.52-1.72,1-2.57,1.51a42,42,0,0,0-3.62,2.46,65.05,65.05,0,0,0-5.65,5.83,13.76,13.76,0,0,1-2.12,2.41,17,17,0,0,0-1.31,1.57c-.55.7-1.05,1.47-1.61,2.16a26.54,26.54,0,0,0-3,4.94,10.17,10.17,0,0,0-.93,3l-.1.73a3,3,0,0,0,.14,1.53c.23.52.49,1,.74,1.48a.57.57,0,0,0,.85,0,2.6,2.6,0,0,0,.38-.43,6.87,6.87,0,0,0,1-2.31,8.23,8.23,0,0,1,1-2.34,25.79,25.79,0,0,1,1.48-2.3c1.49-2,2.93-4.05,4.46-6a32.36,32.36,0,0,1,2.87-3.35C103,124.66,105.05,122.85,107.11,121Z"/><path d="M119.36,122.29a8.55,8.55,0,0,1,3.41-.15,2,2,0,0,0,.48,0c.2,0,.44-.46.4-.74a2.24,2.24,0,0,0-.88-1.67c-.48-.32-1-.6-1.47-.91a3.07,3.07,0,0,0-1.86-.49,16.63,16.63,0,0,0-1.72.15,4.12,4.12,0,0,0-1.22.34,21.73,21.73,0,0,0-5.94,3.87c-.55.54-1,1.24-1.58,1.74a30.05,30.05,0,0,0-4,4.76,36,36,0,0,0-4.13,6.42,9.27,9.27,0,0,0-1.36,4s-.09.45-.18.88a3.11,3.11,0,0,0,.19,1.81,11.73,11.73,0,0,0,.61,1.23c.19.35.77.28,1.05-.08a6.08,6.08,0,0,0,1.15-2.2,20.09,20.09,0,0,1,3.23-6.4c.29-.41.61-.79.89-1.22.94-1.48,2.07-2.7,3.07-4.08s2.33-2.3,3.36-3.7a3.23,3.23,0,0,1,.86-.71c.6-.42,1.22-.81,1.83-1.21A9.57,9.57,0,0,1,119.36,122.29Z"/><path d="M144.17,130.64a10.68,10.68,0,0,1,4.18,0c.07,0,.16,0,.24,0s.46-.38.53-.69a1.42,1.42,0,0,0-.15-1.17,4.44,4.44,0,0,0-2.81-2,6,6,0,0,0-3.92,0A17.39,17.39,0,0,0,135.7,130c-2.14,1.56-4.22,3.2-6.29,4.87a10.87,10.87,0,0,0-1.08,1,25.62,25.62,0,0,0-5.26,8.38,2,2,0,0,0-.16.62,4.87,4.87,0,0,0,.53,2.87c.36.6,1.24.5,1.65-.23l1.37-2.5a17.3,17.3,0,0,1,1.44-2.43,29,29,0,0,1,4.45-4.71,22.21,22.21,0,0,0,3.7-3.24,7.57,7.57,0,0,1,.88-.73,18.52,18.52,0,0,1,2.59-1.58A10.46,10.46,0,0,1,144.17,130.64Z"/><path d="M211.13,159.27a1.37,1.37,0,0,0,1-.74,1.54,1.54,0,0,0,.08-1.44.73.73,0,0,0-.16-.22,2.81,2.81,0,0,0-1.86-1,16.52,16.52,0,0,0-3-.1,2.49,2.49,0,0,0,0-.67,7.27,7.27,0,0,0-1.12-2.7,4.62,4.62,0,0,0-2.12-1.73,9.76,9.76,0,0,0-3.86-.9,21.15,21.15,0,0,0-6.85,1.34,18.5,18.5,0,0,0-5.5,2.63,43.19,43.19,0,0,0-9.52,7.51,14.63,14.63,0,0,0-3.07,4c-.27.59-.56,1.18-.8,1.78-.41,1-.11,2.3.61,2.57a.82.82,0,0,0,.92-.3c.14-.15.28-.31.41-.47.53-.67,1-1.37,1.58-2a50.21,50.21,0,0,1,9.87-8.78,5.8,5.8,0,0,1,1-.51c1.91-.84,3.87-1.67,5.84-2.47a13.56,13.56,0,0,1,4.87-.93c3.49,0,2.71-.16,5.15,1.46l.57.37a21.88,21.88,0,0,0-4.76,1.06,19,19,0,0,0-4.59,2,26.7,26.7,0,0,0-5.41,3,16.55,16.55,0,0,0-5.62,5.85c-.33.56-.68,1.11-1,1.68a6.31,6.31,0,0,0-.81,3.76.73.73,0,0,0,.92.73,1.54,1.54,0,0,0,1-1,3.45,3.45,0,0,1,.61-1.13c.28-.31.58-.62.83-1a19.74,19.74,0,0,1,5.21-4.93c.5-.34,1-.65,1.52-1a23.85,23.85,0,0,1,5.23-2.79c2.32-.86,4.71-1.55,7.15-2.24a10.48,10.48,0,0,1,2-.36C208.68,159.55,209.89,159.44,211.13,159.27Z"/><path d="M81.62,113.32a4.87,4.87,0,0,0,2.29-1.19.48.48,0,0,0,.11-.56,1.8,1.8,0,0,0-1.19-1.34,6,6,0,0,0-3.61.12,16,16,0,0,0-6.51,4,15.71,15.71,0,0,0-1.86,2.23c-.55.83-1.28,1.44-1.84,2.26A75.16,75.16,0,0,0,63,129a12.51,12.51,0,0,0-1.24,4.25l0,.33h0c-.08.64-.19,1.29-.24,1.93a3,3,0,0,0,.83,2.41c.48.5,1.35.08,1.56-.75.1-.42.2-.84.26-1.26a10,10,0,0,1,.71-2.46c.38-.86.71-1.75,1.11-2.59a69.82,69.82,0,0,1,4.25-7.36,16.37,16.37,0,0,1,1.76-2.37,9.59,9.59,0,0,0,.91-1.15,18.16,18.16,0,0,1,5-4.83C79.11,114.46,80.37,113.92,81.62,113.32Z"/><path d="M187,147.09a6,6,0,0,0,2.36-1,1.35,1.35,0,0,0,.36-.85,1.1,1.1,0,0,0-.43-1,1.84,1.84,0,0,0-.66-.35,23.57,23.57,0,0,0-3.55-.53,5.45,5.45,0,0,0-1.56.06,25.61,25.61,0,0,0-6.28,2.09,5,5,0,0,1-1.28.53,8.08,8.08,0,0,0-2,.86c-1.09.61-2.17,1.2-3.23,1.86a29.65,29.65,0,0,0-6.52,5.67,20.74,20.74,0,0,0-1.5,2,7.25,7.25,0,0,0-.5.89,6.08,6.08,0,0,0-.5,3.28.85.85,0,0,0,1.49.48c.42-.42.83-.89,1.24-1.36a9.94,9.94,0,0,1,1-1.2c.91-.78,1.72-1.74,2.59-2.6a17.65,17.65,0,0,1,3.2-2.68,53.78,53.78,0,0,1,9.79-4.93,22.87,22.87,0,0,1,4.45-1.07C185.9,147.2,186.43,147.18,187,147.09Z"/><path d="M94.74,117.48a10.73,10.73,0,0,1,3.71,1s.19,0,.2-.1a1.35,1.35,0,0,0,.06-.59,3.23,3.23,0,0,0-.78-1.49,6.42,6.42,0,0,0-4-2.21,3.28,3.28,0,0,0-1-.07,10.69,10.69,0,0,0-5.22,1.92,10.11,10.11,0,0,0-1.07.91c-2,1.93-4,3.86-5.89,5.82-.46.47-.86,1.06-1.29,1.58a40.41,40.41,0,0,0-2.9,4.19c-.82,1.29-1.55,2.64-2.26,4A5.66,5.66,0,0,0,74,137a1.23,1.23,0,0,0,.87.86A.93.93,0,0,0,76,137.4a4.46,4.46,0,0,0,.45-.8A51.49,51.49,0,0,1,80,129.7a4.59,4.59,0,0,1,.49-.77A54.28,54.28,0,0,1,84,124.69c1.57-1.48,3.13-3,4.69-4.58a8.62,8.62,0,0,1,4.11-2.31A5,5,0,0,1,94.74,117.48Z"/><path d="M55.15,110.08c.1-.09.11-.37.16-.57s-.1-.47-.22-.53a7.06,7.06,0,0,0-1.79-.67,3.25,3.25,0,0,0-2.61.35,11.46,11.46,0,0,1-2.07,1,10.26,10.26,0,0,0-3.13,1.85A19.28,19.28,0,0,0,42.6,114c-.68.78-1.51,1.33-2.17,2.12s-1.32,2-2,2.81a34.92,34.92,0,0,0-2.7,4.19,24.28,24.28,0,0,0-2.51,6.66,2.47,2.47,0,0,0,0,.94c.06.53.15,1,.25,1.57.16.81.74,1.31,1.41,1.18a.94.94,0,0,0,.58-.45,5.24,5.24,0,0,0,.55-1.43,16.48,16.48,0,0,1,.94-3,38,38,0,0,1,7.4-11.16,20.23,20.23,0,0,1,2-1.81c2.52-2,5-4.06,8-4.93A2.57,2.57,0,0,0,55.15,110.08Z"/><path d="M271.17,228.86c.45.08,1-.48,1.14-1.14a3.38,3.38,0,0,0,.07-1.36,2.37,2.37,0,0,0-2.12-2.2,25.28,25.28,0,0,0-6,0l-5.73.78A50.35,50.35,0,0,0,253.1,226a12.36,12.36,0,0,0-3.78,1.94,5.91,5.91,0,0,0-.74.7,5.4,5.4,0,0,0-1.35,3.63,1.17,1.17,0,0,0,.05.27.68.68,0,0,0,.84.43,5.27,5.27,0,0,0,.84-.3c.56-.29,1.1-.62,1.64-.92a17.37,17.37,0,0,1,6.88-2.31,10.63,10.63,0,0,0,1.34-.21c1.9-.4,3.76-.71,5.56-.92a11.94,11.94,0,0,1,5.26.19A7.71,7.71,0,0,0,271.17,228.86Z"/><path d="M239.72,196.75a2.21,2.21,0,0,0,1.59-1.34c.44-1.09.3-2-.65-2.31a8.18,8.18,0,0,0-2.42-.59,39,39,0,0,0-5.43-.08c-2.28.22-4.57.34-6.8.38a22.78,22.78,0,0,0-4.93.79c-.79.19-1.58.37-2.37.61a10.33,10.33,0,0,0-3.43,1.58l-.26.2a3.13,3.13,0,0,0-1.24,2c-.17,1,.63,1.59,1.7,1.16a38.82,38.82,0,0,1,6.47-1.89c.87-.18,1.76-.23,2.63-.41a13.52,13.52,0,0,1,4.26-.24,11.29,11.29,0,0,0,1.65,0c1.22,0,2.44-.12,3.65-.21a9.83,9.83,0,0,1,4,.25A3.28,3.28,0,0,0,239.72,196.75Z"/><path d="M67.16,110.56a2,2,0,0,0-.48-.61,1.81,1.81,0,0,0-.59-.22,4.53,4.53,0,0,0-2,.13c-.79.28-1.6.42-2.38.71a8,8,0,0,0-3.15,1.85,36.47,36.47,0,0,0-5.6,7,47.22,47.22,0,0,0-4.54,10.17,4.75,4.75,0,0,0-.13,2.53c.17.7.35,1.39.56,2.06a.83.83,0,0,0,1.21.4,1.5,1.5,0,0,0,.44-.72,44.53,44.53,0,0,1,3.11-8.23,57,57,0,0,1,2.89-4.94,12.85,12.85,0,0,1,1.38-1.9l1.72-1.91a12.53,12.53,0,0,1,3.57-2.9,40,40,0,0,0,3.92-2.83A.47.47,0,0,0,67.16,110.56Z"/><path d="M244.2,206.15l2.89.14a1.16,1.16,0,0,0,.55-.13,1.19,1.19,0,0,0,.5-.37c.51-.86.68-1.63.21-2.23a2.19,2.19,0,0,0-1.53-.94c-.77-.08-1.48-.26-2.25-.33a31.68,31.68,0,0,0-5.56-.21c-.82.06-1.57-.14-2.43-.05-1.78.18-3.61.34-5.37.41a13.41,13.41,0,0,0-4,.93,7,7,0,0,0-2.22,1.32,5.86,5.86,0,0,0-1.84,2.48c-.4,1,.24,1.68,1.15,1.47a12.36,12.36,0,0,0,1.75-.58,25.49,25.49,0,0,1,4.39-1.26,16.34,16.34,0,0,1,4.27-.49,16.14,16.14,0,0,0,1.68-.11c.74,0,1.46,0,2.19,0a10.16,10.16,0,0,0,1.35,0A25.86,25.86,0,0,1,244.2,206.15Z"/><path d="M221.52,179.59c1.57.44,3.49.21,5.1.67a2.28,2.28,0,0,0,.85,0,1.33,1.33,0,0,0,.52-.31,2.47,2.47,0,0,0,.36-.49c.29-.48.34-.9-.07-1.22-1.51-1.18-2.95-2.5-5.18-2.4a3.78,3.78,0,0,1-.83-.12,25.77,25.77,0,0,0-7.39,0c-.66.09-1.32.19-2,.26a17.45,17.45,0,0,0-5.06,1.66,9.15,9.15,0,0,0-3.3,2.43c-.49.58-1,1.14-1.46,1.73a2.81,2.81,0,0,0-.67,2.1c.08.62,1,.73,1.63.24.33-.26.65-.57,1-.83a10.62,10.62,0,0,1,1.29-.89,16.62,16.62,0,0,1,5.53-2.05c1.44-.21,2.91-.39,4.4-.53s2.91-.16,4.4-.19A3.06,3.06,0,0,1,221.52,179.59Z"/><path d="M281.3,232.2a.94.94,0,0,0-.55-.45,1.83,1.83,0,0,0-.83-.05c-1.15.21-2.42.23-3.79.5-1.91.27-4,.79-6.06,1.14a43.8,43.8,0,0,0-8.47,2.29,3.21,3.21,0,0,0-1.43,1.19l-.18.27a3,3,0,0,0-.53,2.32,1.14,1.14,0,0,0,1.35,1,2.8,2.8,0,0,0,.28-.06c1.3-.36,2.54-.74,3.85-1s2.71-.73,4-1.08c2.58-.72,5-1.37,7.35-1.84,1.34-.28,2.65-.75,3.76-1a1,1,0,0,0,.51-.35,1,1,0,0,0,.33-.7,4.77,4.77,0,0,1,.24-1.23c.05-.2.2-.36.22-.52A.71.71,0,0,0,281.3,232.2Z"/><path d="M217.87,169.19a2.09,2.09,0,0,0-.22-1.87,3.26,3.26,0,0,0-3-1.44c-.75.06-1.48,0-2.24.09s-1.32.14-2,.19a13,13,0,0,0-3.65.89,7.24,7.24,0,0,1-1.09.46,27.78,27.78,0,0,0-5.64,2.47,7.54,7.54,0,0,0-2.87,2.45l-.76,1a6.08,6.08,0,0,0-1.2,2.8c-.07.48,0,.87.37,1a1.09,1.09,0,0,0,1.2-.27c.72-.6,1.44-1.22,2.14-1.86a6.38,6.38,0,0,1,1.24-.93,43.51,43.51,0,0,1,7.89-3.27,8.18,8.18,0,0,1,2.74-.41,8.09,8.09,0,0,0,1.67-.17,17.44,17.44,0,0,1,4.25-.28A1.26,1.26,0,0,0,217.87,169.19Z"/><path d="M245.58,212.77a12.73,12.73,0,0,1,3.44,0,13.51,13.51,0,0,0,2.11,0,1.17,1.17,0,0,0,.54-.22,2.31,2.31,0,0,0,1.11-1.47c.14-.83.07-1.54-.73-1.8a8.33,8.33,0,0,0-2.38-.51,22.34,22.34,0,0,1-2.33-.1,30.44,30.44,0,0,0-7.9.34,20.82,20.82,0,0,0-3.72.86,10.67,10.67,0,0,0-2.87,1.38,5.84,5.84,0,0,0-2.24,3.25.91.91,0,0,0,1.09,1.07c.88-.27,1.75-.57,2.62-.91a22.07,22.07,0,0,1,4.05-1.24,24.7,24.7,0,0,1,6.4-.64A3.75,3.75,0,0,0,245.58,212.77Z"/><path class="cls-6" d="M502,308.92C450.41,203.69,302.78,83.22,254.78,75.81,186,65.21,139.6,33.88,100.7,23.67c-94.81-24.89-289.08,3.06-337,29.68C-337,109.29-502.51,262.78-511.38,434.93s19.52,378,127.78,486.29S-73,1089.82,42.34,1077.4s307-92.29,374.48-198.78S592.52,493.5,502,308.92ZM447,573.36c-23.07,40.82-40.82,195.23-81.64,228.95s-55,111.81-120.68,126S147.06,1008.18,100.91,994s-166.83,19.52-200.55-3.55S-163.53,923-213.22,914.12s-51.47-60.35-104.71-102.94-49.7-88.74-49.7-117.14-56.79-88.73-46.14-133.1,12.42-99.39-1.78-138.43,30.17-85.19,49.7-108.27,14.2-76.31,40.82-87,69.21-40.82,85.19-69.22,84.66-20.63,124.23-44.36c14-8.4,19.52-16,60.34-24.85s102.94,28.4,149.08,21.3,126,37.27,140.21,74.54,88.74,46.14,104.71,95.83,83.41,115.36,72.77,150.86S470.06,532.54,447,573.36Z"/><path d="M338.49,280.6c-5.08-13.54-14.95-24.53-26.32-33.16-19.15-14.81-42.05-23.83-61.11-38.78-7.67-6.19-14.84-13.76-18.23-23.22C223.1,160,193.69,140.78,170,129.23c-17.29-8.06-35.54-14.45-54.51-16.74a84.54,84.54,0,0,0-17.56-.3,105,105,0,0,1-25.71,1.13C38.08,110.4,6.74,95.75-26.62,89.87c-9.43-1.55-19.07-2.35-28.6-.78l-.1-.49a63.84,63.84,0,0,1,14.45-1.9c34-.18,66.37,14.1,99.39,19.45,11.73,2,23.48,3,35.19,1.45,2.29-.31,5.24-.54,7.49-.6a101.35,101.35,0,0,1,22.13,2c26.34,5.31,50.76,17.81,72.64,33.09,15.12,11,31.83,24.85,39.45,42.34,3.62,8.72,10.71,15.36,18.19,20.94C280.08,225,315.89,236.87,333.4,267a62.69,62.69,0,0,1,5.57,13.5l-.48.15Z"/><path class="cls-7" d="M-17.67,17C57,21,223.67,81,261,93s108,64,113.33,88S393,290.33,357,246.33,171.67,93,106.33,87.67-63,65-51,50.33-17.67,17-17.67,17Z"/><path class="cls-8" d="M34.33,45C20.47,62.33,253,99.67,266.33,135.67S293,177,325,195.67,306.4,137.18,285,121C230.33,79.67,39.67,38.33,34.33,45Z"/><path d="M405.48,302.89a24.7,24.7,0,0,1,8.86,3.05c1.72,1,3.52,1.88,5.33,2.74a11.23,11.23,0,0,1,3.41,2.53c1.35,1.46,2.67,3,4,4.43a.43.43,0,0,0,.73,0,1,1,0,0,0,.22-.36,7.15,7.15,0,0,0-1.53-6.43c-1.44-1.93-2.92-3.88-5.26-4.93a6.89,6.89,0,0,1-1.38-1,10.43,10.43,0,0,0-3.39-1.84,24.51,24.51,0,0,1-4.32-1.92,12.26,12.26,0,0,0-4.91-1.51,12,12,0,0,1-2.53-.51,26.89,26.89,0,0,0-8.94-1.17,53.64,53.64,0,0,1-6.47-.1,19.55,19.55,0,0,0-4.31.19c-1,.13-2,.17-3,.24a41.56,41.56,0,0,0-6,.83c-2.54.56-5,1.58-7.48,2.27-.56.16-1.07.47-2.49,1.1-1,.36-2.24,1.74-3.55,3.08a2,2,0,0,0,.42,3,1.21,1.21,0,0,0,.8,0,10.69,10.69,0,0,0,1.62-.64,26.16,26.16,0,0,1,3.55-1.7,60.74,60.74,0,0,1,8.39-2.26c2.56-.37,5.14-.66,7.72-.93a38.26,38.26,0,0,1,7.33-.12c4,.37,8.07.39,11.89,1.64A8.65,8.65,0,0,0,405.48,302.89Z"/><path d="M438.09,373.32c.67,1.29,2,1.95,3.09,2.76a.56.56,0,0,0,.75-.21,3.06,3.06,0,0,0,.7-2.75,13.11,13.11,0,0,0-2.8-5.52,27,27,0,0,0-9.58-7.4,21.81,21.81,0,0,0-4-1.4c-1.39-.29-2.66-1-4-1.33a91.45,91.45,0,0,0-16.51-2.61,13.61,13.61,0,0,0-5.95.93l-.41.15V356c-.82.31-1.66.57-2.45.93a3.83,3.83,0,0,0-2.21,2.91,1.74,1.74,0,0,0,2,1.91,14,14,0,0,0,1.69-.44,10.61,10.61,0,0,1,3.43-.55c1.3,0,2.6-.08,3.89,0a83.59,83.59,0,0,1,11.89,1.67,20,20,0,0,1,4.1,1.14,13.57,13.57,0,0,0,2,.64,26.49,26.49,0,0,1,9.46,4.58C434.9,370.19,436.46,371.79,438.09,373.32Z"/><path d="M421.94,330.09c.19.1.53-.07.81-.12.15-.23.46-.48.44-.7a15.91,15.91,0,0,0-.6-3.22,6.84,6.84,0,0,0-2.46-3.8,18.85,18.85,0,0,1-2.85-2.48,17.62,17.62,0,0,0-4.65-3.58,31.54,31.54,0,0,0-5.18-2.81c-1.46-.52-2.76-1.41-4.22-1.9s-3.34-.69-4.94-1.21a45.35,45.35,0,0,0-7.11-1.3,27.75,27.75,0,0,0-9.84.67,3.09,3.09,0,0,0-1.13.6,20.14,20.14,0,0,0-1.61,1.44,2.21,2.21,0,0,0-.24,2.94,1.58,1.58,0,0,0,1,.58,6,6,0,0,0,2.12-.12,17.82,17.82,0,0,1,4.28-.6,42.76,42.76,0,0,1,13.85,2,53,53,0,0,1,5.18,1.82,32.9,32.9,0,0,1,3.74,1.91c4.34,2.52,8.77,5,12,9A4.31,4.31,0,0,0,421.94,330.09Z"/><path d="M430.57,349a3,3,0,0,0,.36-1.17,4,4,0,0,0-.19-1.06,9.58,9.58,0,0,0-1.67-3c-.93-1-1.72-2.2-2.67-3.21a14,14,0,0,0-4.58-3.64,49,49,0,0,0-12.57-4,53.87,53.87,0,0,0-15.48-.17,5.09,5.09,0,0,0-3.07,1.5c-.69.72-1.35,1.47-2,2.23a1.7,1.7,0,0,0,.46,2.15,2.06,2.06,0,0,0,1.2.19,49.5,49.5,0,0,1,12.08-.73,69.62,69.62,0,0,1,8.05,1.14,17.39,17.39,0,0,1,3.3.86l3.56,1.39a20,20,0,0,1,6.16,3.59c1.91,1.66,4.22,2.73,6.29,4.18A.54.54,0,0,0,430.57,349Z"/><path d="M233,86.33c38.06,14.8,77.91,40.45,103.39,72.7a91.13,91.13,0,0,1,9.94,15.3,206.39,206.39,0,0,0-18.79-19.42c-16.37-15.13-34.61-28.75-52.94-41.41-13.7-9.34-27.74-18-41.6-27.17Z"/><path d="M177.59,88.19a12.6,12.6,0,0,1,2.62-.57,27.61,27.61,0,0,0,4.63-.7,17.2,17.2,0,0,1,4.41-.35c1.25.09,2.52.18,3.8.32a11.28,11.28,0,0,0,3.66-.23.82.82,0,0,0,.48-1.12,2.48,2.48,0,0,0-.71-1,11.16,11.16,0,0,0-5.08-2.18c-1.31-.16-2.62-.26-3.92-.35a9.45,9.45,0,0,0-1.68,0A40.24,40.24,0,0,0,178,83.22a3.87,3.87,0,0,1-1.13.25c-2.22,0-4.08.85-6,1.43a29.47,29.47,0,0,1-4.39,1.17,10.12,10.12,0,0,0-2.14.7q-2.69,1-5.28,2.11c-1.74.77-3.46,1.54-5.15,2.33-.75.35-1.44.8-2.14,1.21-.5.3-1,.66-1.49.92-2.55,1.19-4.46,3-6.54,4.59a4.35,4.35,0,0,0-1.92,2.91c-.11.72-.18,1-.21,1.37a3,3,0,0,0,1.09,2.4,1.65,1.65,0,0,0,2,.18l.27-.21a16.86,16.86,0,0,0,2.76-2.5A24.87,24.87,0,0,1,157,95.66c1.66-.63,3.28-1.38,4.93-2.1a30.69,30.69,0,0,1,3.59-1.65c1.3-.37,2.58-.75,3.86-1.19s2.69-.94,4-1.35S176.19,88.57,177.59,88.19Z"/><path d="M100.11,69.75a23,23,0,0,1,5.17-2.37,13.17,13.17,0,0,1,4.7-.86,8.84,8.84,0,0,0,3.14-.55c-.22-.94-1.13-1.51-1.94-2.12a1.82,1.82,0,0,0-.74-.31,16,16,0,0,0-8.46,0,19.33,19.33,0,0,0-5.54,2.53c-.88.65-1.84,1.23-2.74,1.87a11.8,11.8,0,0,0-2.3,1.75c-1.13,1.34-2.88,2.2-4.06,3.51s-2.59,2.42-3.88,3.63c-.42.4-.84.81-1.22,1.24-1.59,1.83-3.18,3.68-4.72,5.55a10.83,10.83,0,0,0-2.37,8.66,2.85,2.85,0,0,0,1.83,2A2.21,2.21,0,0,0,79.13,94a4.15,4.15,0,0,0,1.19-2,14.68,14.68,0,0,1,3.24-6.5,27.92,27.92,0,0,0,2.15-2.67c1.12-2,3.1-3.44,4.59-5.19a28.24,28.24,0,0,0,4.32-3.7A45.47,45.47,0,0,1,100.11,69.75Z"/><path d="M43.7,63.14A1.07,1.07,0,0,0,44.2,62,1.74,1.74,0,0,0,43,60.75a1.59,1.59,0,0,0-.39-.08,6.91,6.91,0,0,0-3.17.24,30,30,0,0,0-3.84,1.56,2.46,2.46,0,0,0-.61-.55,12.54,12.54,0,0,0-7.92-2,21.56,21.56,0,0,0-5.8,1.21A40.79,40.79,0,0,0,13,65.67,23.8,23.8,0,0,0,7.23,70.6a45.72,45.72,0,0,0-8.42,11,9.4,9.4,0,0,0-1.63,5c0,.65.06,1.3.17,2,.19,1.11,1.75,2.11,3.18,2a1.37,1.37,0,0,0,1.25-.67,4.72,4.72,0,0,0,.27-.61c.29-.83.52-1.68.84-2.5,1.74-4.49,4.72-8.46,7.86-12.36a6.71,6.71,0,0,1,1.09-.94l6.32-5a22.65,22.65,0,0,1,5.91-3.29c4.67-1.82,3.5-1.46,8.08-1.46h1.07a40.65,40.65,0,0,0-5.36,3.47,23.51,23.51,0,0,0-4.58,4,30.71,30.71,0,0,0-5.1,5.37c-2,2.35-3.42,4.89-3.29,7.85,0,.65-.05,1.3,0,2a4.91,4.91,0,0,0,2.23,3.71,2.27,2.27,0,0,0,2.23.16,1.1,1.1,0,0,0,.66-1.4,2,2,0,0,1-.13-1.27,5.91,5.91,0,0,0,.39-1.26,14.46,14.46,0,0,1,3.29-6.89c.43-.55.9-1.08,1.3-1.64a27.27,27.27,0,0,1,4.89-5.08c2.44-2,5-3.89,7.55-5.8a15.38,15.38,0,0,1,2.22-1.38C40.94,64.84,42.33,64,43.7,63.14Z"/><path d="M1,65A7.13,7.13,0,0,0,3.6,63a.86.86,0,0,0-.12-.92,2,2,0,0,0-1.31-.67,4.32,4.32,0,0,0-1.19,0,54.14,54.14,0,0,0-5.42,1.09,12.74,12.74,0,0,0-2.21.74c-2.67,1.41-5.54,2.59-7.78,4.49a7.17,7.17,0,0,1-1.56,1,12.93,12.93,0,0,0-2.48,1.62c-1.24,1-2.51,1.94-3.71,3A30.36,30.36,0,0,0-28.69,81a14.78,14.78,0,0,0-1.09,2.44,4.48,4.48,0,0,0-.21,1,4.13,4.13,0,0,0,1.42,3.23,2.2,2.2,0,0,0,2.82-.12,17.27,17.27,0,0,0,1.1-1.72,7.17,7.17,0,0,1,.75-1.49A34.77,34.77,0,0,0-21.54,81a17.82,17.82,0,0,1,3.21-3.7A87.75,87.75,0,0,1-6.87,68.8a44.05,44.05,0,0,1,5.73-2.92C-.42,65.59.32,65.34,1,65Z"/><path d="M199.5,100.32c.8.36,1.53-.06,1.52-.85a3.79,3.79,0,0,0-.5-1.82,8.69,8.69,0,0,0-2.06-2.48,9.72,9.72,0,0,0-3-1.51c-.87-.28-1.73-.53-2.59-.74s-1.73-.32-2.59-.44a33.32,33.32,0,0,0-5-.36c-1.46,0-2.88.15-4.28.3s-2.76.33-4.15.55a34,34,0,0,0-7.09,1.91,9.54,9.54,0,0,0-3.74,2.9,3.69,3.69,0,0,0-.46.91,4.74,4.74,0,0,0,.79,4.1,3.07,3.07,0,0,0,.25.26,1.41,1.41,0,0,0,1.37.24,6.18,6.18,0,0,0,.88-.48c.53-.41,1-.86,1.54-1.27A16.76,16.76,0,0,1,174,99.33a14.39,14.39,0,0,1,2.09-.75,13.44,13.44,0,0,1,2.27-.38c.61-.06,1.22-.16,1.82-.28a35.49,35.49,0,0,1,3.88-.53c1.31-.08,2.64-.11,4-.11.72,0,1.44,0,2.17.08s1.43.19,2.16.33a18.49,18.49,0,0,1,4.36,1.42C197.66,99.57,198.58,99.91,199.5,100.32Z"/><path d="M120.48,72.53a1.39,1.39,0,0,0,.3-2.07A3.69,3.69,0,0,0,117,69,16.34,16.34,0,0,0,113.17,70a46.5,46.5,0,0,0-6.67,3.42c-2.4,1.67-4.89,3.25-7.35,4.83a21.8,21.8,0,0,0-4.46,4c-.61.69-1.24,1.38-1.79,2.1A7.1,7.1,0,0,0,91.23,88l0,.32a2.69,2.69,0,0,0,1.22,2.34,2.13,2.13,0,0,0,3.2-.38,29.31,29.31,0,0,1,4.68-5.87c.74-.73,1.64-1.35,2.4-2.08a15.57,15.57,0,0,1,4.54-3,17.46,17.46,0,0,0,2-1q2-1.23,4.06-2.51a14.42,14.42,0,0,1,5.17-2.28A5.4,5.4,0,0,0,120.48,72.53Z"/><path d="M137.78,78.21c1.33-.47,2.69-.82,4-1.23a1.51,1.51,0,0,0,.61-.38c.15-.16.31-.4.25-.58a3,3,0,0,0-2.37-2.21,6.61,6.61,0,0,0-3.24-.12c-1.14.29-2.31.53-3.41.86a41.41,41.41,0,0,0-7.45,2.89c-1,.52-2.14.77-3.09,1.34-2,1.21-4,2.4-6,3.57a11.82,11.82,0,0,0-3.6,3.27,4.47,4.47,0,0,0-1,2.45,4.16,4.16,0,0,0,.8,3.12,2,2,0,0,0,3,.44,9.74,9.74,0,0,0,1.32-1.56,20.18,20.18,0,0,1,3.66-3.67,16.43,16.43,0,0,1,4.53-2.88c.69-.27,1.27-.73,1.93-1.06.88-.43,1.8-.84,2.71-1.25.56-.26,1.18-.45,1.69-.75A31.19,31.19,0,0,1,137.78,78.21Z"/><path d="M77.15,72c2.19-.8,3.78-2.37,6-3.18a2.55,2.55,0,0,0,.87-.65.76.76,0,0,0,.16-.59,1.92,1.92,0,0,0-.28-.6,1.68,1.68,0,0,0-1.64-.82c-2.79.26-5.66.39-7.84,2a6.44,6.44,0,0,1-1,.5,49.82,49.82,0,0,0-8.29,5c-.67.52-1.35,1-2,1.51a20.87,20.87,0,0,0-4.44,4.52,5.91,5.91,0,0,0-1.51,4c0,.76,0,1.52.13,2.27A2.79,2.79,0,0,0,59,88a2,2,0,0,0,2.59-.83c.12-.42.15-.86.29-1.27a7,7,0,0,1,.6-1.53A17.31,17.31,0,0,1,67,79.19c3-2.24,6.11-4.42,9.21-6.58A4.2,4.2,0,0,1,77.15,72Z"/><path d="M218,116.59a10.23,10.23,0,0,0-2.67-3.7c-1.09-.81-2.17-1.6-3.25-2.34-.54-.38-1.09-.74-1.63-1.09s-1.15-.6-1.73-.87c-.81-.38-1.61-.74-2.4-1.06a17.11,17.11,0,0,0-2.4-.85c-1.64-.47-3.24-.87-4.8-1.23a37.86,37.86,0,0,0-6-.62,25.06,25.06,0,0,0-5.74.67,2.21,2.21,0,0,0-1.52,1.17l-.16.28a2.81,2.81,0,0,0,0,2.6,2.1,2.1,0,0,0,2,1.25l.35,0a28.68,28.68,0,0,1,4.85-.28c.88,0,1.82,0,2.68.09s1.77.13,2.68.24,1.77.24,2.67.39,1.74.43,2.62.69,1.77.55,2.67.88a21.05,21.05,0,0,1,2.59,1.23l3,1.64a24.91,24.91,0,0,1,2.85,2.11,4.05,4.05,0,0,0,2.19.9C217.83,118.79,218.47,117.67,218,116.59Z"/><path d="M61.48,66.89a3.39,3.39,0,0,0-2.21-1.32,7,7,0,0,0-4.94.76c-.83.52-1.78.92-2.6,1.48s-1.48.9-2.23,1.33A17.08,17.08,0,0,0,45.74,72a8.32,8.32,0,0,1-1,1c-2.12,1.52-3.5,3.5-5.15,5.3a5,5,0,0,0-1.56,3.62c0,.62,0,.94,0,1.27a4.05,4.05,0,0,0,1.24,3,2,2,0,0,0,1.72.64,1.66,1.66,0,0,0,1.49-.92,25.86,25.86,0,0,0,1.06-2.77,5.08,5.08,0,0,1,.76-1.48,59.62,59.62,0,0,1,7.15-7.25,12,12,0,0,1,3-2.06,11,11,0,0,0,1.88-1.17,27.18,27.18,0,0,1,4.75-2.88A.93.93,0,0,0,61.48,66.89Z"/><path d="M147,83.74a17.31,17.31,0,0,1,4.75-1.37c1-.18,2-.52,3-.78a1.11,1.11,0,0,0,.54-.41,1.46,1.46,0,0,0,0-1.88,3.53,3.53,0,0,0-3.07-1.56,17,17,0,0,0-4,.45c-1.12.3-2.21.67-3.36.93a35.18,35.18,0,0,0-10,4.12A19.4,19.4,0,0,0,131.23,86a7.33,7.33,0,0,0-2,2.77,4.38,4.38,0,0,0,.83,4,2,2,0,0,0,2.42.32c.75-.7,1.49-1.43,2.18-2.18a17.52,17.52,0,0,1,3.69-3.16A27.19,27.19,0,0,1,146,84.14,5.21,5.21,0,0,0,147,83.74Z"/><path d="M241.44,145.44c10.73,12.19,20.91,24.64,31.87,36.52,9.61,10.07,19,20.8,31,28.06a17.62,17.62,0,0,0,5.59,2.09,15,15,0,0,1-6.13-.82c-24.19-9-50.68-43.25-62.32-65.85Z"/><path d="M132.11,392.56c2.44-11.28,13.23-21.12,23.08-26.4,3.54-1.72,7.56-3.54,11.59-2.94a19.58,19.58,0,0,0-5.22,2.42A115.84,115.84,0,0,0,147.9,376c-5.8,5.07-11.33,10.19-15.79,16.61Z"/><path d="M21.89,334.78c5.26-13.81,19.66-29.89,35.55-29.34C42.49,311,32.56,323.57,21.89,334.78Z"/><path d="M21.89,213.89c4.68,3.44,9.52,8.14,14,11.84,1.53,1.32,3.06,2.66,4.71,4.16a14.94,14.94,0,0,1-6.4-1.51c-5.88-2.77-10.81-8-12.27-14.49Z"/><path d="M180.11,206.78c2.15,8.28,2,16.92,5.33,24.89-8-4.47-8.91-17.29-5.33-24.89Z"/><path class="cls-9" d="M67.26,127.14c-46.74,13.5-69.42,74.67,2.31,111.58s97.62.45,93.37-41.67S111.75,114.28,67.26,127.14Z"/><path class="cls-10" d="M71.51,117.3C24.77,130.81,2.09,192,73.82,228.88s97.62.45,93.36-41.66S116,104.45,71.51,117.3Z"/><path d="M71.51,117.3c-25.19,7.16-46.39,30.85-42.42,58.12,2.38,17.29,14.49,31.54,28.39,41.36,3,2.23,7.67,5,10.94,6.9l5.74,3c25.51,12.82,67.53,27.62,85.16-3.93,6-11.21,7.18-24.57,5.89-37.1-2.46-21.48-15.32-41.09-32.15-54.32-17-13.56-40.27-20.22-61.55-14Zm0,0c17-5,35.53-2,51,6.19,23.32,12.2,42.1,35.2,46.18,61.71,4.4,28.49-6.55,58.93-38.95,61.27-20.34,1.29-39.89-6.81-57.52-16.07-13.55-7.46-26.58-17-35.3-30-23.09-33.54-2.11-72.51,34.59-83.09Z"/><path class="cls-11" d="M146.3,147.13c8.88,20.49,13.51,82.08-15.57,83.77s-42.89-2.56-39.81,2.25,62.86,24.35,72.39-21.46S146.3,147.13,146.3,147.13Z"/><path class="cls-11" d="M142.42,172.64c-7.16-3.33-18.09,11.77-4.68,16.19C147.29,192,151.41,176.83,142.42,172.64Z"/><path d="M143.1,170.8a2.8,2.8,0,0,0-4-.23c-2,1.6-2.7,5.11-2.17,7.27.27.86.37.68.66.81a11.08,11.08,0,0,0,1.87.49c1.19.13,2.31.5,3.43-.45,2-1.74,2.06-5.8.2-7.89Zm0,0c3.54,4.4,4.67,11.73-1.93,13.88-5,1.65-10.78-1.37-9.7-7.16.66-4.34,7.92-10.68,11.63-6.72Z"/><path class="cls-11" d="M81.37,125.28c-10.78.58-1.84,25.79,7.91,16.64S87.38,125,81.37,125.28Z"/><path d="M77.21,127a2.81,2.81,0,0,0-2.73,2.92c0,2.54,2.21,5.35,4.2,6.32.84.34.76.14,1,0a10.48,10.48,0,0,0,1.57-1.12c.86-.83,1.86-1.46,1.85-2.92,0-2.68-3.14-5.3-5.94-5.2Zm0,0c5.64.08,12,3.9,9.44,10.35-1.9,4.87-7.94,7.42-11.71,2.89C72,137,71.79,127.33,77.21,127Z"/><path class="cls-11" d="M105.08,174.05c-5.42-9.33-23.8,10.11-11.22,14.62S108.1,179.25,105.08,174.05Z"/><path d="M101.64,171.13A2.79,2.79,0,0,0,97.8,170c-2.27,1.13-3.75,4.4-3.71,6.61.08.91.22.75.48.94a9.59,9.59,0,0,0,1.71.88c1.13.39,2.14,1,3.44.32,2.37-1.25,3.28-5.21,1.92-7.66Zm0,0c2.5,5.07,2,12.47-4.91,13.12-5.2.53-10.22-3.68-7.91-9.1,1.6-4.09,10.07-8.7,12.82-4Z"/><path class="cls-11" d="M117.47,141.46c-10.22-4.25-17.48,22.59-2.77,21.15S124.2,144.25,117.47,141.46Z"/><path d="M117.08,140c-5.77-1.87-6.88,7.53-4.33,10.61.52.64.79.42,1.58.55a9,9,0,0,0,4.26-.69c3.24-2.36,2.19-8.77-1.51-10.47Zm0,0a11.22,11.22,0,0,1,4.13,3.73c4.16,5.37,3.09,12.62-4.11,14.61-4.38,1.46-9.79-.88-10.57-5.68-1.3-5.3,5-14.88,10.55-12.66Z"/><path class="cls-11" d="M76.29,209.2c-7.7,1.76.55,19,8.16,12.46S81.35,208,76.29,209.2Z"/><path d="M74.12,209.26c-4.49,1.38.15,7.92,3.21,7.33a6.32,6.32,0,0,0,1.72-1.21,2.36,2.36,0,0,0,.82-1.06c.4-2.69-2.81-5.49-5.75-5.06Zm0,0c4.17-.61,10.85,2.08,9.62,7.32a6.55,6.55,0,0,1-6.57,5.14c-2.94-.19-5-2.94-5.47-5.33s-.63-6.41,2.42-7.13Z"/><path d="M45.66,148.05c-1.88,21,1.48,47.26,16.53,63.1-21.89-8.87-27.8-44.16-16.53-63.1Z"/><path d="M73.1,154.72c-1.7,6.05-2,11.92-2.36,18.17-3.28-5.56-2.6-13.79,2.36-18.17Z"/><path d="M84.24,157.45a83.47,83.47,0,0,0-1.93,12.73c-.13,1.44-.26,2.89-.49,4.44a12.72,12.72,0,0,1-1.51-4.36c-.71-4.5.29-9.76,3.93-12.81Z"/><path d="M123,184.63c-3.25,8.39-11.51,17.42-21.18,17,8.79-3.22,14.78-10.5,21.18-17Z"/><path d="M139.09,199.3a27.21,27.21,0,0,1-8.86,20.23c-1.89,1.56-4,3.45-6.61,3.58a2.75,2.75,0,0,0,.8-.45c7.13-6.13,11.27-14.73,14.67-23.36Z"/><path d="M52.4,171.15c.71,6.51,3.69,12.17,6.72,17.83s6.59,11.11,9.84,16.77C60.4,198.27,49.8,183,52.4,171.15Z"/><path class="cls-12" d="M34.21,239.63c-15.41-1-25.64,28.48-7.2,46.67s43.28.77,38.07-20.11S41.48,240.11,34.21,239.63Z"/><path d="M34.21,239.63c-7-.41-12.36,5.58-14.56,11.69a30.47,30.47,0,0,0-.46,19.35c3.55,11.63,15,22.76,27.63,20.84,9.09-1.22,16.69-9.47,17.38-18.68.49-6.41-1.75-12.93-5.12-18.35a33.49,33.49,0,0,0-24.87-14.85Zm0,0a38,38,0,0,1,18.67,7c10.88,7.9,18.6,23.89,11.8,36.78C60.5,291.61,51.18,297,41.94,296c-9.11-.84-16.74-7.34-21.16-15a33.57,33.57,0,0,1-1.69-29.87c2.57-6,8.08-12,15.12-11.46Z"/><path class="cls-13" d="M38.32,236.12c-15.4-1-25.64,28.49-7.2,46.67s43.28.78,38.07-20.1S45.59,236.6,38.32,236.12Z"/><path d="M38.32,236.12c-7-.4-12.36,5.59-14.56,11.7a30.53,30.53,0,0,0-.46,19.35c3.55,11.63,15,22.75,27.64,20.83,9.08-1.21,16.68-9.46,17.37-18.68.49-6.4-1.74-12.92-5.12-18.34a33.53,33.53,0,0,0-24.87-14.86Zm0,0a38.23,38.23,0,0,1,18.68,7C67.87,251,75.6,267,68.8,279.9c-4.19,8.21-13.5,13.61-22.74,12.56-9.12-.84-16.74-7.34-21.16-15a33.54,33.54,0,0,1-1.7-29.87c2.58-6,8.08-12,15.12-11.47Z"/><path class="cls-5" d="M42.21,253.35c-11.6.73-11.42,22.25,2.71,22.26S53.48,252.64,42.21,253.35Z"/><path d="M42.21,253.35c-9.07.62-10.1,13.86-4.07,18.79A10.07,10.07,0,0,0,45,274.5c5.89.19,8.34-5.13,7.46-10.41C51.82,259,48,253,42.21,253.35Zm0,0c7.38-.26,12.08,8.14,11.81,14.81-.17,7.2-7.19,10.06-13.38,7.79-4.31-1.49-7-6.06-7.19-10.36-.53-5.47,2.75-12,8.76-12.24Z"/><path class="cls-14" d="M37.27,237.68c13.46-.84,31.34,14.42,30.93,28.7s-9.18,18-10.77,18.18c-4.2.57,9.3-14,3.75-25.49C55,246.41,26.86,238.33,37.27,237.68Z"/><path d="M27.19,252.6c-.61,4.17-.06,8.24.57,12.34.79,4,1.38,8.17,4,11.51a7,7,0,0,1-2.53-2.09c-4.05-5.4-5.56-15.84-2-21.76Z"/><path class="cls-15" d="M169.05,335.93c-48.74-44.21-98.35-45.16-135.56,7-49.35,69.15,10.45,125.5,10.45,125.5Z"/><path d="M169.05,335.93C123.52,296.26,73.62,290.26,36,343.27a141.64,141.64,0,0,0-8.44,13.48c-.64,1.29-2.34,4.76-3,6.1L22.81,367a85.11,85.11,0,0,0-6.32,35.21c1,24,12.5,47.27,29.07,64.45l-3.34.1c35-36.74,90.9-94.19,126.83-130.86Zm0,0c-35.68,39-89.16,97.78-125,135.86a110.16,110.16,0,0,1-23.26-32.7c-16.9-36-9.68-71.59,14.46-102.18,39.71-50.65,90.8-42.33,133.82-1Z"/><path class="cls-16" d="M161.1,336.33c-27.27-22.77-84.74-39.67-119,3s-23.88,88.39-.35,116C49.9,465,164.4,339.09,161.1,336.33Z"/><path class="cls-17" d="M162.41,335a106,106,0,0,0-45.81-21.81c-18.24-3.8-37.68-2.49-54.25,6.53C52.82,324.93,45,332.39,38.46,341a100.57,100.57,0,0,0-17,33.53,88.31,88.31,0,0,0,5.62,61.57,91.79,91.79,0,0,0,7.41,12.82c1.37,2,2.82,3.92,4.33,5.81a9.9,9.9,0,0,0,2.36,2.55c2.07,1.2,4.74-.07,6.61-1a60.51,60.51,0,0,0,8.86-6.13c4-3.16,7.85-6.53,11.63-10,9.86-8.94,19.31-18.33,28.62-27.83q15.23-15.57,29.92-31.67c8.21-9,16.33-18,24.16-27.34,2.71-3.21,5.38-6.44,7.93-9.77a30.29,30.29,0,0,0,3.69-5.44c.45-1,.74-2.23-.18-3.06-1.77-1.6-4.41,1-2.63,2.63a1.72,1.72,0,0,1-.48-1.13c0,.32.11-.66,0-.23s-.14.21.06-.12c-.08.13-.13.29-.2.42-.46.82-1,1.6-1.51,2.36-.37.52-.74,1-1.12,1.53-.22.31-.45.61-.68.9l-.33.43c-.23.31.21-.27,0-.06l-.24.31q-1.73,2.2-3.5,4.37c-6.92,8.45-14.17,16.63-21.48,24.74q-14,15.52-28.47,30.6c-9.41,9.8-19,19.47-28.83,28.82-4.12,3.91-8.29,7.76-12.58,11.47q-2.69,2.32-5.44,4.56C53.4,448,52.45,448.7,50.58,450a44.77,44.77,0,0,1-4,2.58c-.55.31-1.12.6-1.69.87s.24-.05-.31.14l-.75.26-.57.13c-.49.15.5,0-.12,0-.29,0-.69-.11,0,0-.37-.08-.45-.2,0,.05-.42-.24.07.11,0,.07a11.92,11.92,0,0,0-1.35-1.6q-2.19-2.68-4.15-5.54c-11.21-16.26-17-36-15.48-55.76a86.27,86.27,0,0,1,9.08-31.86c5.3-10.54,12.39-20.62,21.32-28.4,14-12.2,32.35-17.19,50.69-15.94a102.56,102.56,0,0,1,47.82,16.26,86.27,86.27,0,0,1,8.66,6.31C161.61,339.17,164.25,336.55,162.41,335Z"/><path class="cls-18" d="M148.64,343.83c2.79-8.44-21.77-21.06-30.39-10s-8.63-19.72-19.18-16.12-11.93,16.55-22.19,15.62c-5.37-.49-18.71-4.79-27.18,4.57-7.69,8.51-1,23.35-2.2,26.92s-12.94,3-17.85,10.72c-5.93,9.3.92,22.25,5.1,30.08,3.17,5.91-8.26,11.25-6,18.28,3.2,10,14.33,25.78,19.11,24.91,8.13-1.48,31.46-21,48.23-39.78S145.75,352.57,148.64,343.83Z"/><path class="cls-17" d="M139.31,362.15c8.1-11.71-16.56,9.9-23.13-.95s-18.25-10.5-22,3.38-13.16-2.79-21.49,5S58,388.45,68.54,398.38c11.61,10.92-2.92,10.66-9,18.08S54.1,448.8,69.7,436.78,134.31,369.37,139.31,362.15Z"/><path class="cls-19" d="M128.28,372.31c5.49-7.95-11.23,6.71-15.68-.65s-15.1-8.15-17.66,1.27-9.68.94-15.32,6.25-7.55,16.15,3,18.51S73.28,409.94,69.14,415s1.37,16.09,11.94,7.94S124.89,377.2,128.28,372.31Z"/><path class="cls-20" d="M126.14,352.6c9.12-8.39,3.5-20.81-.79-16.67S126.14,352.6,126.14,352.6Z"/><path d="M126.14,352.6c3.07-3.83,4.74-8.63,3.37-13.26-.34-1.11-1.07-2.63-2.12-2.95-4.79.44-1.94,12.89-1.25,16.21Zm0,0c-2.4-4.5-4.47-9.77-3.14-15,1.15-3.83,5.34-5.17,7.63-1.5,3.4,5.52.61,13.27-4.49,16.53Z"/><path class="cls-20" d="M99,344.1c7.35-10-.7-20.61-4.11-15.7S99,344.1,99,344.1Z"/><path d="M99,344.1c2.21-4.25,3-9.2.72-13.36-.56-1-1.57-2.26-2.67-2.34-.68-.17-1.6,1-1.81,2.26-.53,4.61,1.94,9.15,3.76,13.44Zm0,0c-3.27-3.78-6.45-8.46-6.07-13.81.47-3.85,4.24-5.88,7.18-2.94,4.54,4.57,3.21,12.68-1.11,16.75Z"/><path class="cls-20" d="M67.35,364.25C66.4,351.85,53.4,349.07,54,355S67.35,364.25,67.35,364.25Z"/><path d="M67.35,364.25c-1.09-4.67-3.71-8.95-8.15-10.61-1.08-.39-2.67-.69-3.55,0-.64.32-.59,1.78.09,2.9,2.6,3.85,7.43,5.68,11.61,7.75Zm0,0c-4.94-.74-10.4-2.22-13.6-6.52-2.15-3.23-.61-7.23,3.54-6.91,6.42.51,10.68,7.53,10.06,13.43Z"/><path class="cls-20" d="M56.71,401.73c-8.94-8.64-17.8-1.58-13.43,2.46S56.71,401.73,56.71,401.73Z"/><path d="M56.71,401.73c-3.42-2.36-7.64-4.25-11.46-2.43a3.18,3.18,0,0,0-2,2.36,2.1,2.1,0,0,0,.94,1.86c3.44,2.5,8.82-.27,12.47-1.79Zm0,0c-3.27,2.93-8,6-12.72,4.23a4.7,4.7,0,0,1-3-4.49c.45-3.79,5-5.35,8.19-4.67a12.28,12.28,0,0,1,7.53,4.93Z"/><path class="cls-20" d="M82.39,356.27c3.2-13.77-10.31-23-11.68-16.33S82.39,356.27,82.39,356.27Z"/><path d="M82.39,356.27c.46-5.81-1.28-11.56-5.57-15.33-1-.88-2.77-2.05-4-1.73-.49.14-.62.54-.75,1.08-.51,5.39,6.78,12,10.31,16Zm0,0c-5.3-3-13.92-9.51-13.08-16.49a3.93,3.93,0,0,1,4.84-3.38c8,2.28,11.18,12.71,8.24,19.87Z"/><path class="cls-20" d="M53.67,385.24c-5.81-9.95-19.24-8.08-16.32-3.35S53.67,385.24,53.67,385.24Z"/><path d="M53.67,385.24a15.26,15.26,0,0,0-12.05-6.08c-1.11,0-2.85.29-3.41,1.16-.39,4.12,12.31,4.69,15.46,4.92Zm0,0c-5,1.06-13.57,2-17.2-2.6-1.71-2.36,0-4.78,2.39-5.36,6-1.54,12.68,2.43,14.81,8Z"/><path class="cls-20" d="M51.82,418.59c-11.36-6.17-22.55,3.51-17,6.35S51.82,418.59,51.82,418.59Z"/><path d="M51.82,418.59c-5-1.8-10.42-1.7-14.73,1.17-1,.7-2.42,1.94-2.42,3.1,0,.47.32.69.75.95,4.67,1.78,12-3,16.4-5.22Zm0,0c-3.9,3.86-8.59,7.55-14.34,8.12-4.4.25-7.25-3.43-4.07-7.06,4.61-5.08,13.29-5.07,18.41-1.06Z"/><path class="cls-21" d="M96.14,252.14c-25.5,18.35-24.31,58.74,1.27,54.18,17.12-3.05,2.61-12.75,4.89-17.3,4-8.06,33.83,10.84,21.88,31.21s.51,43.89,33.88,34.9,0-65.57,19.5-59.16-.3,32.27,26.65,20,15.53-59.07-12.65-65.54S120.84,234.37,96.14,252.14Z"/><path d="M96.14,252.14c-12.6,9.22-21,25.85-17.58,41.49,1.18,5,4.35,9.91,9.37,11.7,3.66,1.38,7.75,1.08,11.48.08,2.2-.62,5.17-1.57,5.78-4,1-4.32-5.9-9.22-3.23-13.29,1.33-2,4.25-2,6.28-1.6,5.44,1.29,10,4.68,13.68,8.74,5.69,6.12,8.29,15.53,4.64,23.36-1.06,2.34-2.53,4.65-3.37,7.1-3.66,9.14-1.84,20.75,7.2,25.92,6.51,3.8,14.37,3.88,21.73,2.57,4.72-.89,9.78-2.11,13.31-5.47,11.59-11.51,2.88-33.59,3.29-48.17.28-7.3,5.39-8.91,11.46-6,8,3.56,9.25,10.52,10,18.29.53,4.06,1.58,4.89,5.59,4,7-1.74,14.36-5.33,18.17-11.85,6.49-11.12,4.53-25.51-1.46-36.49-4.91-9.16-13.52-16.19-23.89-18-28.26-6.62-66.71-15.93-92.48,1.62Zm0,0c25.33-17.55,64.56-8.78,92.82-3.08,10.87,1.61,20.21,8.82,25.62,18.29,6.81,11.7,9.16,27.14,2.39,39.43A27.22,27.22,0,0,1,204.51,318c-4.21,1.78-9,4.28-13.88,2.88-4.56-1.67-4.57-7.43-5.21-11.31-.7-6.21-3.92-10.7-10.17-11.75-.74,0-.95-.1-1.33.4-.87,1.48-.61,4.39-.5,6.33,1.31,15.05,7.56,35.41-4.91,47.58-4.32,4-10,5.43-15.65,6.39-10.75,1.91-24.07.29-30.76-9.47-5.89-8.29-4.71-19.62.07-28.12,3.58-5.61,4.7-11.48,2.09-17.78-3-6.86-9.15-12.85-16.38-14.93-1.68-.34-3.6-.53-4.68.85-2.8,4,12.22,14.58-5.54,17.68-9.72,1.76-17.41-3.29-19.48-13-3.15-15.77,5.24-32.39,18-41.58Z"/><path class="cls-22" d="M93.38,243.57c-25.5,18.34-24.31,58.73,1.28,54.18,17.11-3.05,2.61-12.76,4.88-17.31,4-8.05,33.84,10.84,21.89,31.22s.5,43.88,33.87,34.9,0-65.58,19.5-59.16-.3,32.27,26.65,20S217,248.33,188.8,241.85,118.08,225.8,93.38,243.57Z"/><path class="cls-23" d="M94,247.36c-14.14,11.9-19.18,37.11-9.64,43.16s-1.75-11.3,5.6-21.6c20.48-28.69,96.71-18.73,109.38-.07s21,21,8.48-5.68C197.64,241.52,118.12,227,94,247.36Z"/><path d="M140.44,243.17c14.22-1.92,29.1-.68,42.47,4.73,4.37,1.88,8.93,4.13,12,7.91a25.49,25.49,0,0,0-6-3.64c-15.21-6.67-32-8.06-48.38-9Z"/><path d="M153.53,252.73c10.69-1.44,22,.12,31.54,5.33,3.05,1.84,6.36,3.91,8.07,7.14a16.53,16.53,0,0,0-4.22-3.13c-10.78-6.11-23.25-7.9-35.39-9.34Z"/><path d="M165.81,265c8.1-1.89,17.85,1,22.58,8.11-6.89-4.43-14.62-6.61-22.58-8.11Z"/><path d="M90.61,283.17c-1.11-6.4,4.8-11.86,10.44-13.72,6-2.12,13.22.26,16.22,5.95-4.26-4-10-5.63-15.49-3.7-5.16,1.76-10.32,5.66-11.17,11.47Z"/><path d="M168.37,282.66c4.3-4.87,12.25-3.67,17.23-.43,5.42,3.35,8.06,10.53,5.49,16.38a17.23,17.23,0,0,0-1.39-8.37c-3.42-7.16-14.11-11.72-21.33-7.58Z"/><path d="M131.81,305.74c-.44,4.89-1.37,9.64-1.95,14.48-.47,4.35-1.19,9.71,1.53,13.27,1.8,2.31,5,3.43,8.13,4.25a16.39,16.39,0,0,1-5-.47c-12.87-3.55-6-22.89-2.75-31.53Z"/><path class="cls-24" d="M38.6,560.58c23.07-13,31.49-30.77,31.49-30.77s35,38.3,70-.95,1.46-93.08-30.95-95.62c0,0,30.78-46.71-9.43-73.65-50.91-34.1-79.31-13.9-86.75,27.15,0,0-45.89-29.55-71.81,18.55s.15,79.51,30.25,79.67c0,0-21.15,22.76-4.95,50.09S15.54,573.55,38.6,560.58ZM20,535.55c-31.61-12-32.45-18.57-19.3-46.32S-52.53,470-40.78,436.4s39.44-36.46,55.93-22.53,9.67-39.33,37.21-38.18,62.45,30.1,40,46.34c-6.73,4.87-16.56,16.82-5.18,27.39,8.76,8.14,53.29,25.67,41.67,48.81-17.57,35-43.27,22.24-58.19,10.12S51.64,547.55,20,535.55Z"/><path d="M38.49,560.38c12.72-7.33,24.27-17.67,31.13-30.79l.32-.67.53.54c20.1,19.21,45.06,22.39,65.28,1.45C143.56,523,149.69,513,151.9,502c3.63-17-1.75-35.22-12.38-48.78-7.48-9.48-18.16-17.58-30.42-18.8l-1.95-.19a78,78,0,0,0,6.76-12.43c11-25.2,7-49.2-17.85-63.68-38.1-24.45-72.51-20.4-81.22,28.95l-.47,2.64a66.31,66.31,0,0,0-12.71-6.23c-27.37-9.92-48.24.88-60.28,26.61-7.41,15.12-11.72,33.42-5.11,49.46,5.62,14.05,20.15,23.24,35.19,23.31l4.67.07A54.39,54.39,0,0,0-31.77,493C-43,511.91-38,531-23.6,546.47c15.08,16.72,41.46,25.46,62.09,13.91Zm.22.39c-29.34,16.1-67.5-5.26-77.94-35-3.88-11.46-2-24.29,4-34.71a43.41,43.41,0,0,1,5.16-7.49l1.53,3.53a43.51,43.51,0,0,1-23.63-6.8c-23-14.86-23.28-43.87-13.19-66.75,4.86-11.15,11.34-22,21.3-29.39,15.29-11.58,36.28-10.1,52.7-1.9a58.62,58.62,0,0,1,5.4,2.95l-2.84,1.24c7.13-38.33,32.26-55.79,69.27-38.61,9.44,4.42,18.6,9.63,26.5,16.5,20.61,18.66,16.16,47.79,3.22,69.59l-.89-1.82c8.73.59,16.89,4.58,23.64,10,16.88,13.5,26.77,36,23.48,57.57-1.81,12.95-8.86,24.88-18.16,33.82-9.19,9.09-21.92,15.47-35.1,14.17-12.89-1.19-24.6-8.25-33.44-17.44l.86-.12c-7.34,13.08-18.94,23.34-31.85,30.73Z"/><path d="M20,535.76C-11.4,524-13.47,517.61.22,487.4c2.42-5.92,0-10.76-5.43-13.91-12-7.59-34.06-9.79-38.45-25.43-1.27-5.1.06-10,2-14.64a52,52,0,0,1,13.1-19.66c9.41-8.85,23.91-11.51,35.63-6a35.44,35.44,0,0,1,8,5,13.39,13.39,0,0,0,3.59,2.41c4.6,1.62,6.43-5,7.79-8.26,1-2.86,2-5.8,2.94-8.72,2-5.87,4.21-11.82,8.23-16.69,4.26-5.27,10.48-7.39,17.17-6.59a59.41,59.41,0,0,1,18.12,4.67c12.67,5.28,32.56,19.12,27.66,35.12a18.58,18.58,0,0,1-6,8.16,35.18,35.18,0,0,0-6.35,6c-4.3,5.18-5.75,11.93-1.08,17.25,3.14,3.57,7.48,5.67,11.56,8.21,14.68,8.9,42.35,24.05,32.33,44.9-5.37,10.64-13.92,21.37-26.41,23.35-13.07,2-25.23-5.28-34.74-13.32-5.19-4.79-9.9,2.24-12.88,6.26-9.1,13.22-18.8,27.38-37,20.24Zm.16-.42c18.08,6.87,27.11-7.29,35.46-20.76,2.74-3.81,5.52-9.06,10.91-9.22a8.52,8.52,0,0,1,4.9,1.95,79.15,79.15,0,0,0,7.47,5.13,45.48,45.48,0,0,0,16.47,6.29c12.4,1.92,22-5.57,28.24-15.74a54.37,54.37,0,0,0,4-7.71c1.93-5.28.16-10.7-3.11-15.14-9.29-12-23.73-18.47-36.1-27C78.32,446.06,77.27,435.66,85,426.3A37.14,37.14,0,0,1,92,419.77c11.32-8.45,3.44-21-5-28.25a62,62,0,0,0-32.44-14.71c-6.18-.9-11.74.78-15.83,5.67-4,4.59-6.13,10.45-8.1,16.13-1,2.9-1.89,5.84-2.93,8.76s-2.12,6.05-4.57,8.33c-2.89,2.69-6.78.38-9.13-1.69a32.94,32.94,0,0,0-7.71-4.55,30.16,30.16,0,0,0-32.78,6.59c-5.32,5.14-9.07,11.83-11.68,18.75-2.79,6.73-3.3,13.84,2.56,19.07,6.66,6,15.73,8.63,23.8,12.42,4.28,2,8.78,4.15,12.12,7.71,5.49,5.73,3.51,12.37.08,18.49-3.43,7.63-9,17.28-6.32,25.73,3.76,9.2,17.43,13.5,26,17.12Z"/><path class="cls-25" d="M95.34,443.29c19.16,7.76,42.54,18.51,46.9,41,1.29,7.44-.08,15-2.26,22.17-3.39,11.08-11.41,21.2-22.53,25.33-14.65,5.63-31.88,1.77-43.61-8.28-3.37-2.8-5.91.14-8.4,2.88-3.38,4-6.26,8.34-9.7,12.48-10.84,13.6-23.8,18.2-40.11,10.86-16.29-6.91-37.21-17.61-31.19-38.81a58.27,58.27,0,0,1,3.88-10.21c3.16-5.84,4.45-12.23-.38-17.54-4.37-5-10.78-8.13-16.69-11.28-24.13-12-41.71-23-28.11-52.64C-47.46,396.16-27,378-1.27,390a48.28,48.28,0,0,1,9.89,6.46,8,8,0,0,0,2.64,1.61c.5.11.45.1,1-.17,2.07-1.52,3.28-4.06,4.6-6.42,1.53-2.92,3-6.1,4.47-9.33,11.39-25.9,25.45-39.9,54.56-26.55,17.94,8.49,39.07,30.58,35.36,51.85a22.52,22.52,0,0,1-9,13.59,16.12,16.12,0,0,0-3.76,3.41A23.37,23.37,0,0,0,93.81,439c.13,1.4.23,3.6,1.53,4.31Zm-.36.88c-3-1.73-2.22-7.61-1.79-10.55.93-5.26,3.44-10.72,7.93-13.9,7-5.38,9.24-14.3,6.66-22.6C101.63,377,75.2,357.89,54.12,359.46c-6,.71-10.57,4.41-14.19,9.24-3.79,5.06-6.64,11.25-9.51,17.63-3.72,7.57-7.44,20-17.08,21.89-8.14,1.26-12.56-6.43-19-9.16-23.75-11.84-40.5,12.76-46.86,33-8.23,27.86,39.17,32.37,46.94,53.55,2.13,5.63,0,11.9-2.88,16.72-2.34,4.58-4.38,9.3-4.95,14.39-1.4,16.73,17.25,24.72,30.38,29.74C23,548.86,30,550,36.25,547.75c9.68-3.58,15-13.07,20.45-21.35,2.83-4.1,5.64-8.63,10.5-10.9,3.58-1.74,8.18-.73,11.23,1.53,1.31,1,2.77,2.11,4.18,2.94a40.64,40.64,0,0,0,22.79,5.82c13.16-.44,23.78-9.33,28.63-21.51,2.42-6.08,4.43-12.79,3.88-19.42-2.23-21.66-24.72-33.42-42.93-40.69Z"/><path class="cls-26" d="M235.8,276.28c3-.71-1.38-5.45-4.79-18.58s19.39,5.54,24.47-12.06c6.87-23.79-22-10.37-25.25-8.66s8.76-6.75,8-20.76-28.06-7.15-29.68.42,16.06,29,8.87,26.19-23.28-8.56-22.49,3.27c1,15.43,8,20.74,22.88,11C235.42,245.43,220.59,280,235.8,276.28Z"/><path d="M235.75,276.1c.76-.15.94-.78.8-1.47a44.35,44.35,0,0,0-2.26-6.1c-1.13-2.69-2.13-5.45-3.06-8.23-.58-2.21-1.89-4.56-.8-6.88,1.44-2.28,4.8-1.59,6.93-1.46,4,.42,8.69,1.13,12.15-.62,4.39-2.21,5.69-9.31,5.27-13.69-1.48-9-18.52-2.41-23.8-.06-.51.2-.77.49-1.39.45-.46.07-1-1-.73-1.08a3.87,3.87,0,0,1,.92-1.25,30.34,30.34,0,0,0,6.35-9.85c1.62-4.74,3.28-12.22-1.8-15.35-6.44-3.67-18.22-.58-23.29,4.37-2,1.87-1.16,4.39-.31,6.73,2.1,5.31,5.31,10.18,8.05,15.27a16.12,16.12,0,0,1,2.1,5.21c.16,2.79-2.44,3.31-4.5,2.3-4.71-1.66-20.54-7.91-19.57,1.56.37,4.83,1.08,11.41,5.6,13.79,2.25,1,5,.66,7.35-.12,4.17-1.14,7.65-4.16,11.83-5.54,1.58-.52,3.8-.38,4.88,1.11,4.2,5.61-2.17,23.23,9.28,20.91Zm.09.36c-11.57,2.58-6.34-14.77-10.51-20.29-1.91-1.79-4.91.49-6.76,1.67-5.89,4.47-16,9.39-21.61,1.77-2.88-3.88-3.57-8.85-4-13.41-.72-14.17,17-8.53,24.73-5.19a5.38,5.38,0,0,0,.72.27c.06,0,0,0-.14,0a1,1,0,0,0-.49.22,1.44,1.44,0,0,0-.4.49,1,1,0,0,0-.08.32,16.64,16.64,0,0,0-1.6-3.85c-2.63-5.1-5.75-10.12-7.76-15.89-.72-2.21-1.53-5.14-.34-7.46,2.06-3.58,6.07-5.17,9.73-6.4,6.52-1.91,17.12-3.08,20.69,4.25,1.55,4.31.56,9.06-.82,13.27a36.73,36.73,0,0,1-6.54,10.93,3,3,0,0,0-.22.31s0-.06.06-.15c.23-.08-.27-1.06-.68-1a.63.63,0,0,0-.28,0c-.09,0,.14-.09.14-.09l.48-.27c6.4-3.21,18.87-8.94,25.31-3.62,4.72,4.22,2.42,13.9-.77,18.43-4.12,5.62-11.78,4.35-17.64,3.09-1.75-.2-4.18-1-5.42.26-.9,1.73.13,4,.48,5.87a81.65,81.65,0,0,0,2.62,8.31,50.35,50.35,0,0,1,2.18,6.22,1.48,1.48,0,0,1-1.1,1.89Z"/><path class="cls-27" d="M218.34,214.09c-9.71-1.41,17.31-10.18,18.26,2.15.59,7.71-8.75,23.32-9.8,20.21S225.3,215.1,218.34,214.09Z"/><path class="cls-27" d="M197.88,245.21c-1.19,9.61,2.73,16,13,12s-6.13-1.75-7.1-6.13S198.76,238,197.88,245.21Z"/><path d="M230.9,237.25c-3.65,3.79-4.71,9.7-4.37,14.89a25,25,0,0,1-.17-8.24,16.52,16.52,0,0,1,3.19-7.87l1.35,1.22Z"/></g><path class="cls-1" d="M12.11,8.56V540.11L390.78,160.56S288.56,68.11,245,62.78,128.56,13.89,87.67,12.11,12.11,8.56,12.11,8.56Z"/></svg>