<svg width="28" height="28" viewBox="0 0 28 28" fill="none" xmlns="http://www.w3.org/2000/svg">
<path d="M14 0C21.7328 0 28 6.26719 28 14C28 21.7328 21.7328 28 14 28C11.0305 28 8.26875 27.0703 5.99922 25.4898C5.20625 24.8883 5.01156 23.8438 5.56719 23.0508C6.11953 22.2578 7.20781 22.0664 8.00078 22.6188C9.70156 23.8055 11.7688 24.5 14 24.5C19.7969 24.5 24.5 19.7969 24.5 14C24.5 8.15391 19.7969 3.5 14 3.5C11.0523 3.5 8.47656 4.67359 6.57344 6.57344L8.25781 8.25781C9.08359 9.08359 8.49844 10.5 7.33359 10.5H1.3125C0.587891 10.5 0 9.91484 0 9.1875V3.16859C0 1.99937 1.41367 1.41367 2.24055 2.24055L4.10047 4.10047C6.63359 1.56898 10.1336 0 13.9508 0H14ZM14 7C14.7273 7 15.3125 7.58516 15.3125 8.3125V13.4586L18.818 17.0078C19.3758 17.5219 19.3758 18.3531 18.818 18.818C18.3531 19.3758 17.5219 19.3758 17.0078 18.818L13.0703 14.8805C12.8242 14.6836 12.6875 14.35 12.6875 14V8.3125C12.6875 7.58516 13.2727 7 14 7Z" fill="white"/>
</svg>
