<svg width="29" height="29" viewBox="0 0 29 29" fill="none" xmlns="http://www.w3.org/2000/svg">
<path d="M14.3333 28.275H21.3333V25.475H14.3333C8.25734 25.475 3.13334 20.351 3.13334 14.275C3.13334 8.19899 8.25734 3.07499 14.3333 3.07499C20.4093 3.07499 25.5333 8.19899 25.5333 14.275V16.277C25.5333 17.383 24.5393 18.475 23.4333 18.475C22.3273 18.475 21.3333 17.383 21.3333 16.277V14.275C21.3333 10.411 18.1973 7.27499 14.3333 7.27499C10.4693 7.27499 7.33334 10.411 7.33334 14.275C7.33334 18.139 10.4693 21.275 14.3333 21.275C16.2653 21.275 18.0293 20.491 19.2893 19.217C20.1993 20.463 21.7673 21.275 23.4333 21.275C26.1913 21.275 28.3333 19.035 28.3333 16.277V14.275C28.3333 6.54699 22.0613 0.274994 14.3333 0.274994C6.60534 0.274994 0.333336 6.54699 0.333336 14.275C0.333336 22.003 6.60534 28.275 14.3333 28.275ZM14.3333 18.475C12.0093 18.475 10.1333 16.599 10.1333 14.275C10.1333 11.951 12.0093 10.075 14.3333 10.075C16.6573 10.075 18.5333 11.951 18.5333 14.275C18.5333 16.599 16.6573 18.475 14.3333 18.475Z" fill="white"/>
</svg>
