<svg width="29" height="29" viewBox="0 0 29 29" fill="none" xmlns="http://www.w3.org/2000/svg">
<path fill-rule="evenodd" clip-rule="evenodd" d="M8.39487 0.250672C9.88778 0.181944 10.3638 0.166672 14.1667 0.166672C17.9696 0.166672 18.4456 0.183217 19.9372 0.250672C21.4289 0.318126 22.447 0.556126 23.338 0.901035C24.2709 1.25358 25.1172 1.80467 25.8172 2.5174C26.53 3.21613 27.0798 4.06122 27.4311 4.9954C27.7772 5.88631 28.014 6.90449 28.0827 8.39358C28.1514 9.88904 28.1667 10.365 28.1667 14.1667C28.1667 17.9696 28.1501 18.4456 28.0827 19.9385C28.0152 21.4276 27.7772 22.4458 27.4311 23.3367C27.0798 24.271 26.529 25.1175 25.8172 25.8172C25.1172 26.5299 24.2709 27.0798 23.338 27.431C22.447 27.7772 21.4289 28.0139 19.9398 28.0827C18.4456 28.1514 17.9696 28.1667 14.1667 28.1667C10.3638 28.1667 9.88778 28.1501 8.39487 28.0827C6.90578 28.0152 5.8876 27.7772 4.99669 27.431C4.0624 27.0797 3.21591 26.529 2.51614 25.8172C1.8039 25.1181 1.25272 24.272 0.901051 23.3379C0.556142 22.447 0.319414 21.4289 0.250687 19.9398C0.18196 18.4443 0.166687 17.9683 0.166687 14.1667C0.166687 10.3638 0.183232 9.88776 0.250687 8.39613C0.318142 6.90449 0.556142 5.88631 0.901051 4.9954C1.25324 4.06132 1.80484 3.21525 2.51741 2.51613C3.21619 1.80404 4.06183 1.25287 4.99541 0.901035C5.88632 0.556126 6.90451 0.319399 8.3936 0.250672H8.39487ZM19.824 2.77067C18.3476 2.70322 17.9047 2.68922 14.1667 2.68922C10.4287 2.68922 9.98578 2.70322 8.50941 2.77067C7.14378 2.83304 6.40305 3.06085 5.90923 3.25304C5.25632 3.50758 4.78923 3.80922 4.29923 4.29922C3.83474 4.7511 3.47728 5.30121 3.25305 5.90922C3.06087 6.40304 2.83305 7.14376 2.77069 8.5094C2.70323 9.98576 2.68923 10.4287 2.68923 14.1667C2.68923 17.9047 2.70323 18.3476 2.77069 19.8239C2.83305 21.1896 3.06087 21.9303 3.25305 22.4241C3.47705 23.0312 3.83469 23.5823 4.29923 24.0341C4.75105 24.4987 5.30214 24.8563 5.90923 25.0803C6.40305 25.2725 7.14378 25.5003 8.50941 25.5627C9.98578 25.6301 10.4274 25.6441 14.1667 25.6441C17.906 25.6441 18.3476 25.6301 19.824 25.5627C21.1896 25.5003 21.9303 25.2725 22.4241 25.0803C23.0771 24.8258 23.5441 24.5241 24.0341 24.0341C24.4987 23.5823 24.8563 23.0312 25.0803 22.4241C25.2725 21.9303 25.5003 21.1896 25.5627 19.8239C25.6301 18.3476 25.6441 17.9047 25.6441 14.1667C25.6441 10.4287 25.6301 9.98576 25.5627 8.5094C25.5003 7.14376 25.2725 6.40304 25.0803 5.90922C24.8258 5.25631 24.5241 4.78922 24.0341 4.29922C23.5822 3.83476 23.0321 3.4773 22.4241 3.25304C21.9303 3.06085 21.1896 2.83304 19.824 2.77067V2.77067ZM12.3785 18.4825C13.3772 18.8982 14.4892 18.9543 15.5246 18.6412C16.56 18.3281 17.4546 17.6653 18.0556 16.7659C18.6566 15.8665 18.9268 14.7863 18.8198 13.7099C18.7129 12.6335 18.2356 11.6275 17.4694 10.8639C16.981 10.3758 16.3904 10.0021 15.7402 9.76959C15.09 9.5371 14.3963 9.45168 13.7091 9.51946C13.0219 9.58723 12.3583 9.80653 11.7661 10.1616C11.1738 10.5166 10.6676 10.9985 10.284 11.5727C9.90033 12.1468 9.64875 12.7989 9.54734 13.4819C9.44594 14.1649 9.49724 14.862 9.69756 15.5228C9.89787 16.1836 10.2422 16.7918 10.7058 17.3036C11.1694 17.8154 11.7406 18.218 12.3785 18.4825ZM9.07832 9.07831C9.74654 8.41009 10.5398 7.88004 11.4129 7.5184C12.2859 7.15677 13.2217 6.97064 14.1667 6.97064C15.1117 6.97064 16.0474 7.15677 16.9205 7.5184C17.7936 7.88004 18.5868 8.41009 19.2551 9.07831C19.9233 9.74652 20.4533 10.5398 20.815 11.4129C21.1766 12.2859 21.3627 13.2217 21.3627 14.1667C21.3627 15.1117 21.1766 16.0474 20.815 16.9205C20.4533 17.7935 19.9233 18.5868 19.2551 19.255C17.9055 20.6046 16.0752 21.3627 14.1667 21.3627C12.2582 21.3627 10.4278 20.6046 9.07832 19.255C7.72881 17.9055 6.97065 16.0752 6.97065 14.1667C6.97065 12.2582 7.72881 10.4278 9.07832 9.07831V9.07831ZM22.9587 8.04231C23.1243 7.88611 23.2568 7.69827 23.3485 7.48991C23.4402 7.28156 23.4892 7.05692 23.4925 6.82931C23.4958 6.6017 23.4534 6.37573 23.3678 6.16479C23.2823 5.95385 23.1552 5.76223 22.9943 5.60127C22.8333 5.4403 22.6417 5.31327 22.4307 5.22769C22.2198 5.14212 21.9938 5.09973 21.7662 5.10305C21.5386 5.10637 21.314 5.15532 21.1056 5.24701C20.8973 5.3387 20.7094 5.47127 20.5532 5.63685C20.2494 5.95889 20.0831 6.38664 20.0896 6.82931C20.096 7.27198 20.2747 7.6947 20.5878 8.00774C20.9008 8.32079 21.3236 8.49951 21.7662 8.50596C22.2089 8.51241 22.6367 8.34609 22.9587 8.04231V8.04231Z" fill="white"/>
</svg>
