<svg width="26" height="31" viewBox="0 0 26 31" fill="none" xmlns="http://www.w3.org/2000/svg">
<path d="M12.8667 16.7333C15.1863 16.7333 17.0667 14.8529 17.0667 12.5333C17.0667 10.2137 15.1863 8.33333 12.8667 8.33333C10.5471 8.33333 8.66666 10.2137 8.66666 12.5333C8.66666 14.8529 10.5471 16.7333 12.8667 16.7333Z" stroke="white" stroke-width="2.33333" stroke-linecap="round" stroke-linejoin="round"/>
<path d="M12.8667 1.33333C9.89623 1.33333 7.04747 2.51333 4.94706 4.61373C2.84665 6.71414 1.66666 9.5629 1.66666 12.5333C1.66666 15.1821 2.22946 16.9153 3.76666 18.8333L12.8667 29.3333L21.9667 18.8333C23.5039 16.9153 24.0667 15.1821 24.0667 12.5333C24.0667 9.5629 22.8867 6.71414 20.7863 4.61373C18.6858 2.51333 15.8371 1.33333 12.8667 1.33333V1.33333Z" stroke="white" stroke-width="2.33333" stroke-linecap="round" stroke-linejoin="round"/>
</svg>
